<svg width="24" height="24" viewBox="0 0 24 24" fill="none" xmlns="http://www.w3.org/2000/svg">
<path d="M13.65 4.5H20.5V18.092H13.65C13.1028 18.092 12.6653 18.4596 12.3753 18.7593C12.2459 18.8931 12.1177 19.0448 12 19.1912C11.8823 19.0448 11.7541 18.8931 11.6247 18.7593C11.3347 18.4596 10.8972 18.092 10.35 18.092H3.5V4.5H10.35C10.4817 4.5 10.6717 4.58443 10.927 4.81913C11.1442 5.01871 11.3425 5.2632 11.5351 5.50069C11.561 5.53261 11.5868 5.56439 11.6125 5.59593L12 6.07131L12.3875 5.59593C12.4132 5.5644 12.439 5.53261 12.4649 5.50069C12.6575 5.26321 12.8558 5.01871 13.073 4.81913C13.3283 4.58443 13.5183 4.5 13.65 4.5Z" stroke="#E0E0E0"/>
<path d="M15 12C13.3431 12 12 13.3431 12 15C12 13.3431 10.6569 12 9 12C10.6569 12 12 10.6569 12 9C12 10.6569 13.3431 12 15 12Z" fill="#E0E0E0"/>
</svg>
