<svg width="24" height="24" viewBox="0 0 24 24" fill="none" xmlns="http://www.w3.org/2000/svg">
<path fill-rule="evenodd" clip-rule="evenodd" d="M10.35 4H3V18.592H10.35C10.9049 18.592 11.4129 19.2469 11.8052 19.7526C11.8738 19.8411 11.9388 19.925 12 20C12.0612 19.925 12.1262 19.8411 12.1948 19.7526C12.5871 19.2469 13.0951 18.592 13.65 18.592H21V4H13.65C13.037 4 12.4812 4.68612 12.0754 5.18711C12.0497 5.21889 12.0245 5.24993 12 5.28C11.9755 5.24993 11.9503 5.21889 11.9246 5.18711C11.5188 4.68612 10.963 4 10.35 4ZM12 15C12 13.3431 13.3431 12 15 12C13.3431 12 12 10.6569 12 9C12 10.6569 10.6569 12 9 12C10.6569 12 12 13.3431 12 15Z" fill="#E0E0E0"/>
</svg>
