<svg width="14" height="14" viewBox="0 0 14 14" fill="none" xmlns="http://www.w3.org/2000/svg">
<path fill-rule="evenodd" clip-rule="evenodd" d="M7.30635 10.9627C7.10768 11.5499 6.99996 12.179 6.99996 12.8333C6.99996 12.179 6.89224 11.5499 6.69357 10.9627C6.11267 9.24572 4.7542 7.88725 3.03727 7.30635C2.45006 7.10768 1.82092 6.99996 1.16663 6.99996C1.82092 6.99996 2.45006 6.89224 3.03727 6.69357C4.7542 6.11267 6.11267 4.7542 6.69357 3.03727C6.89224 2.45006 6.99996 1.82092 6.99996 1.16663C6.99996 1.82092 7.10768 2.45006 7.30635 3.03727C7.88725 4.7542 9.24572 6.11267 10.9627 6.69357C11.5499 6.89224 12.179 6.99996 12.8333 6.99996C12.179 6.99996 11.5499 7.10768 10.9627 7.30635C9.24572 7.88725 7.88725 9.24572 7.30635 10.9627ZM6.99996 10.1564C7.63999 8.76392 8.76392 7.63999 10.1564 6.99996C8.76392 6.35993 7.63999 5.236 6.99996 3.84356C6.35993 5.236 5.236 6.35993 3.84356 6.99996C5.236 7.63999 6.35993 8.76392 6.99996 10.1564Z" fill="#E0E0E0"/>
</svg>
