<svg width="24" height="24" viewBox="0 0 24 24" fill="none" xmlns="http://www.w3.org/2000/svg">
<path fill-rule="evenodd" clip-rule="evenodd" d="M11.5 4.85714V2H12.5V4.85714H11.5ZM11.5 22V19.1429H12.5V22H11.5ZM18.7175 4.5754L16.6972 6.5957L17.4043 7.30281L19.4246 5.2825L18.7175 4.5754ZM4.57535 18.7175L6.59565 16.6972L7.30276 17.4043L5.28246 19.4246L4.57535 18.7175ZM4.5754 5.2825L6.5957 7.30281L7.30281 6.5957L5.2825 4.5754L4.5754 5.2825ZM18.7175 19.4246L16.6972 17.4043L17.4043 16.6972L19.4247 18.7175L18.7175 19.4246ZM2 12.5H4.85714V11.5H2V12.5ZM22 12.5H19.1429V11.5H22V12.5ZM16.7143 12C16.7143 14.6036 14.6036 16.7143 12 16.7143C9.39637 16.7143 7.28571 14.6036 7.28571 12C7.28571 9.39637 9.39637 7.28571 12 7.28571C14.6036 7.28571 16.7143 9.39637 16.7143 12ZM17.7143 12C17.7143 15.1559 15.1559 17.7143 12 17.7143C8.84409 17.7143 6.28571 15.1559 6.28571 12C6.28571 8.84409 8.84409 6.28571 12 6.28571C15.1559 6.28571 17.7143 8.84409 17.7143 12Z" fill="#E0E0E0"/>
</svg>
