<svg width="14" height="14" viewBox="0 0 14 14" fill="none" xmlns="http://www.w3.org/2000/svg">
<path fill-rule="evenodd" clip-rule="evenodd" d="M5.75 10.5V11.6996L7.24951 10.5H9.5C10.5355 10.5 11.375 9.66053 11.375 8.625V5.5C11.375 4.46447 10.5355 3.625 9.5 3.625H4.5C3.46447 3.625 2.625 4.46447 2.625 5.5V8.625C2.625 9.66053 3.46447 10.5 4.5 10.5H5.75ZM5.125 13V11.125H4.5C3.11929 11.125 2 10.0057 2 8.625V5.5C2 4.11929 3.11929 3 4.5 3H9.5C10.8807 3 12 4.11929 12 5.5V8.625C12 10.0057 10.8807 11.125 9.5 11.125H7.46875L5.125 13Z" fill="#E0E0E0"/>
</svg>
