<svg width="24" height="24" viewBox="0 0 24 24" fill="none" xmlns="http://www.w3.org/2000/svg">
<path fill-rule="evenodd" clip-rule="evenodd" d="M13.283 5.20484L15.4879 3L21 8.51211L18.7952 10.717L16.9701 15.2796C16.7292 15.8818 16.2355 16.3474 15.6202 16.5524L5.45294 19.9415C4.59112 20.2288 3.7712 19.4089 4.05848 18.5471L7.44756 8.37982C7.65265 7.76454 8.11823 7.27077 8.7204 7.0299L13.283 5.20484ZM18.4054 9.54766L19.4409 8.51211L15.4879 4.55906L14.4523 5.59461L18.4054 9.54766ZM13.5743 6.27567L17.7243 10.4257L15.9465 14.8702C15.8261 15.1713 15.5792 15.404 15.2716 15.5066L6.27362 18.5059L11.2648 13.5148C12.0978 13.3921 12.9762 13.6513 13.6174 14.2924C12.5411 13.2161 12.5411 11.4711 13.6174 10.3948C12.5411 11.4711 10.7961 11.4711 9.71975 10.3948C10.3536 11.0287 10.6142 11.8945 10.5015 12.719L5.49409 17.7264L8.49341 8.72843C8.59595 8.4208 8.82874 8.17391 9.12983 8.05348L13.5743 6.27567Z" fill="#E0E0E0"/>
</svg>
