<svg width="24" height="24" viewBox="0 0 24 24" fill="none" xmlns="http://www.w3.org/2000/svg">
<path fill-rule="evenodd" clip-rule="evenodd" d="M18.5708 11.2779L16.9701 15.2796C16.7292 15.8818 16.2355 16.3474 15.6202 16.5524L5.45294 19.9415C5.23232 20.0151 5.01445 20.016 4.81719 19.9623L11.2648 13.5148C12.0978 13.3921 12.9762 13.6513 13.6174 14.2925C12.5411 13.2161 12.5411 11.4711 13.6174 10.3948C12.5411 11.4711 10.7961 11.4711 9.71975 10.3948C10.3536 11.0287 10.6142 11.8945 10.5015 12.719L4.03766 19.1828C3.98395 18.9856 3.98494 18.7677 4.05848 18.5471L7.44756 8.37982C7.65265 7.76454 8.11823 7.27077 8.7204 7.0299L12.7221 5.42922L18.5708 11.2779ZM19.1096 10.4025L21 8.51211L15.4879 3L13.5975 4.89039L19.1096 10.4025Z" fill="#E0E0E0"/>
</svg>
