<svg width="24" height="24" viewBox="0 0 24 24" fill="none" xmlns="http://www.w3.org/2000/svg">
<circle cx="12" cy="12" r="3.5" stroke="#E0E0E0"/>
<path d="M9.38579 6.35194L9.5961 6.80556C9.74595 6.73608 9.85183 6.59707 9.87898 6.43414L9.38579 6.35194ZM9.77778 4V3.5C9.53336 3.5 9.32476 3.67671 9.28458 3.9178L9.77778 4ZM8.41688 6.91239L8.24147 7.38061C8.39638 7.43865 8.56997 7.41631 8.70514 7.32094L8.41688 6.91239ZM6.18292 6.07547L6.35833 5.60725C6.12944 5.5215 5.87211 5.6138 5.7499 5.82547L6.18292 6.07547ZM3.96069 9.92447L3.52768 9.67447C3.40547 9.88615 3.45421 10.1551 3.64291 10.3105L3.96069 9.92447ZM5.80257 11.4408L6.3006 11.4851C6.31525 11.3207 6.2478 11.1597 6.12036 11.0547L5.80257 11.4408ZM5.80257 12.5592L6.12036 12.9452C6.2478 12.8403 6.31525 12.6793 6.3006 12.5149L5.80257 12.5592ZM3.96071 14.0755L3.64293 13.6895C3.45422 13.8448 3.40549 14.1138 3.5277 14.3255L3.96071 14.0755ZM6.18293 17.9245L5.74992 18.1745C5.87213 18.3862 6.12946 18.4785 6.35835 18.3927L6.18293 17.9245ZM8.41687 17.0876L8.70513 16.6791C8.56996 16.5837 8.39637 16.5613 8.24146 16.6194L8.41687 17.0876ZM9.38579 17.6481L9.87898 17.5659C9.85183 17.4029 9.74595 17.2639 9.5961 17.1944L9.38579 17.6481ZM9.77778 20L9.28458 20.0822C9.32476 20.3233 9.53336 20.5 9.77778 20.5V20ZM14.2222 20V20.5C14.4666 20.5 14.6752 20.3233 14.7154 20.0822L14.2222 20ZM14.6142 17.6481L14.4039 17.1944C14.254 17.2639 14.1482 17.4029 14.121 17.5659L14.6142 17.6481ZM15.5831 17.0876L15.7585 16.6194C15.6036 16.5613 15.43 16.5837 15.2949 16.6791L15.5831 17.0876ZM17.8171 17.9245L17.6417 18.3928C17.8706 18.4785 18.1279 18.3862 18.2502 18.1745L17.8171 17.9245ZM20.0394 14.0755L20.4724 14.3255C20.5946 14.1139 20.5458 13.8449 20.3571 13.6895L20.0394 14.0755ZM18.1974 12.5592L17.6994 12.5148C17.6848 12.6793 17.7522 12.8403 17.8797 12.9452L18.1974 12.5592ZM18.1974 11.4408L17.8797 11.0548C17.7522 11.1597 17.6848 11.3208 17.6994 11.4852L18.1974 11.4408ZM20.0394 9.9245L20.3572 10.3105C20.5459 10.1552 20.5946 9.88618 20.4724 9.6745L20.0394 9.9245ZM17.8172 6.0755L18.2502 5.8255C18.128 5.61383 17.8706 5.52153 17.6417 5.60728L17.8172 6.0755ZM15.5832 6.91243L15.2949 7.32097C15.4301 7.41634 15.6037 7.43869 15.7586 7.38065L15.5832 6.91243ZM14.6142 6.35194L14.121 6.43414C14.1482 6.59707 14.254 6.73608 14.4039 6.80555L14.6142 6.35194ZM14.2222 4L14.7154 3.9178C14.6752 3.67671 14.4666 3.5 14.2222 3.5V4ZM9.87898 6.43414L10.271 4.0822L9.28458 3.9178L8.89259 6.26974L9.87898 6.43414ZM8.70514 7.32094C8.98479 7.12362 9.28282 6.9508 9.5961 6.80556L9.17547 5.89832C8.80715 6.06909 8.45699 6.27216 8.12862 6.50385L8.70514 7.32094ZM6.0075 6.54369L8.24147 7.38061L8.59229 6.44417L6.35833 5.60725L6.0075 6.54369ZM4.39371 10.1745L6.61593 6.32547L5.7499 5.82547L3.52768 9.67447L4.39371 10.1745ZM6.12036 11.0547L4.27848 9.53845L3.64291 10.3105L5.48479 11.8268L6.12036 11.0547ZM6.27778 12C6.27778 11.8263 6.2855 11.6546 6.3006 11.4851L5.30454 11.3964C5.28682 11.5954 5.27778 11.7967 5.27778 12H6.27778ZM6.3006 12.5149C6.2855 12.3454 6.27778 12.1737 6.27778 12H5.27778C5.27778 12.2033 5.28682 12.4046 5.30454 12.6036L6.3006 12.5149ZM4.2785 14.4615L6.12036 12.9452L5.48479 12.1732L3.64293 13.6895L4.2785 14.4615ZM6.61595 17.6745L4.39373 13.8255L3.5277 14.3255L5.74992 18.1745L6.61595 17.6745ZM8.24146 16.6194L6.00752 17.4563L6.35835 18.3927L8.59228 17.5558L8.24146 16.6194ZM9.5961 17.1944C9.28282 17.0492 8.98479 16.8764 8.70513 16.6791L8.12861 17.4961C8.45699 17.7278 8.80715 17.9309 9.17547 18.1017L9.5961 17.1944ZM10.271 19.9178L9.87898 17.5659L8.89259 17.7303L9.28458 20.0822L10.271 19.9178ZM14.2222 19.5H9.77778V20.5H14.2222V19.5ZM14.121 17.5659L13.729 19.9178L14.7154 20.0822L15.1074 17.7303L14.121 17.5659ZM15.2949 16.6791C15.0152 16.8764 14.7172 17.0492 14.4039 17.1944L14.8245 18.1017C15.1929 17.9309 15.543 17.7278 15.8714 17.4961L15.2949 16.6791ZM17.9925 17.4563L15.7585 16.6194L15.4077 17.5558L17.6417 18.3928L17.9925 17.4563ZM19.6063 13.8255L17.3841 17.6745L18.2502 18.1745L20.4724 14.3255L19.6063 13.8255ZM17.8797 12.9452L19.7216 14.4616L20.3571 13.6895L18.5152 12.1732L17.8797 12.9452ZM17.7222 12C17.7222 12.1736 17.7145 12.3454 17.6994 12.5148L18.6955 12.6036C18.7132 12.4046 18.7222 12.2033 18.7222 12H17.7222ZM17.6994 11.4852C17.7145 11.6547 17.7222 11.8264 17.7222 12H18.7222C18.7222 11.7967 18.7132 11.5954 18.6955 11.3965L17.6994 11.4852ZM19.7216 9.53848L17.8797 11.0548L18.5152 11.8269L20.3572 10.3105L19.7216 9.53848ZM17.3841 6.3255L19.6064 10.1745L20.4724 9.6745L18.2502 5.8255L17.3841 6.3255ZM15.7586 7.38065L17.9926 6.54372L17.6417 5.60728L15.4078 6.44421L15.7586 7.38065ZM14.4039 6.80555C14.7172 6.95081 15.0152 7.12364 15.2949 7.32097L15.8714 6.50389C15.543 6.27218 15.1929 6.06909 14.8245 5.89832L14.4039 6.80555ZM13.729 4.0822L14.121 6.43414L15.1074 6.26974L14.7154 3.9178L13.729 4.0822ZM9.77778 4.5H14.2222V3.5H9.77778V4.5Z" fill="#E0E0E0"/>
</svg>
