<svg width="24" height="24" viewBox="0 0 24 24" fill="none" xmlns="http://www.w3.org/2000/svg">
<path fill-rule="evenodd" clip-rule="evenodd" d="M11.4648 18.2168L11.4661 18.2181L12.0024 18.7502L12.5345 18.2262C12.5347 18.226 12.535 18.2257 12.5353 18.2254C14.6117 16.1688 16.267 14.5284 17.4139 12.9991C18.549 11.4855 19.1111 10.1757 19.1111 8.79564C19.1111 6.52741 17.5026 4.88889 15.6 4.88889C14.507 4.88889 13.4203 5.44832 12.7004 6.36961L12 7.26611L11.2996 6.36961C10.5797 5.44832 9.493 4.88889 8.4 4.88889C6.49742 4.88889 4.88889 6.52741 4.88889 8.79564C4.88889 10.1757 5.45099 11.4854 6.58596 12.9978C7.7328 14.526 9.38821 16.1644 11.4648 18.2168ZM13.16 18.8578L12 20L10.84 18.849L10.8299 18.839C6.71554 14.7727 4 12.0888 4 8.79564C4 6.11008 5.936 4 8.4 4C9.49598 4 10.5572 4.43782 11.3847 5.16877C11.6081 5.36619 11.8146 5.585 12 5.82234C12.1854 5.585 12.3919 5.36619 12.6153 5.16877C13.4428 4.43782 14.504 4 15.6 4C18.064 4 20 6.11008 20 8.79564C20 12.0831 17.2939 14.7634 13.1916 18.8265L13.16 18.8578Z" fill="#E0E0E0"/>
</svg>
