<svg width="40" height="28" viewBox="0 0 40 28" fill="none" xmlns="http://www.w3.org/2000/svg">
<path d="M26.4 8H13.6C12.72 8 12.008 8.72 12.008 9.6L12 17.6C12 18.48 12.72 19.2 13.6 19.2H26.4C27.28 19.2 28 18.48 28 17.6V9.6C28 8.72 27.28 8 26.4 8ZM19.2 10.4H20.8V12H19.2V10.4ZM19.2 12.8H20.8V14.4H19.2V12.8ZM16.8 10.4H18.4V12H16.8V10.4ZM16.8 12.8H18.4V14.4H16.8V12.8ZM16 14.4H14.4V12.8H16V14.4ZM16 12H14.4V10.4H16V12ZM23.2 17.6H16.8V16H23.2V17.6ZM23.2 14.4H21.6V12.8H23.2V14.4ZM23.2 12H21.6V10.4H23.2V12ZM25.6 14.4H24V12.8H25.6V14.4ZM25.6 12H24V10.4H25.6V12Z" fill="#797979"/>
</svg>
