<svg width="14" height="14" viewBox="0 0 14 14" fill="none" xmlns="http://www.w3.org/2000/svg">
<path fill-rule="evenodd" clip-rule="evenodd" d="M6.68786 10.6265L6.68858 10.6272L7.00143 10.9376L7.31182 10.632C7.31198 10.6318 7.31213 10.6317 7.31228 10.6315C8.52354 9.43185 9.4891 8.47496 10.1581 7.58286C10.8203 6.6999 11.1482 5.93587 11.1482 5.13083C11.1482 3.80769 10.2099 2.85189 9.10004 2.85189C8.46245 2.85189 7.82852 3.17823 7.40863 3.71565L7.00004 4.23861L6.59145 3.71565C6.17156 3.17823 5.53763 2.85189 4.90004 2.85189C3.7902 2.85189 2.85189 3.80769 2.85189 5.13083C2.85189 5.93587 3.17978 6.69987 3.84185 7.58209C4.51084 8.47354 5.4765 9.42929 6.68786 10.6265ZM7.67671 11.0004L7.00004 11.6667L6.32337 10.9953L6.31746 10.9895C3.91744 8.61745 2.33337 7.05187 2.33337 5.13083C2.33337 3.56425 3.46271 2.33337 4.90004 2.33337C5.53936 2.33337 6.15844 2.58877 6.64109 3.01516C6.77146 3.13032 6.89187 3.25796 7.00004 3.39641C7.10821 3.25796 7.22862 3.13032 7.35899 3.01516C7.84164 2.58877 8.46072 2.33337 9.10004 2.33337C10.5374 2.33337 11.6667 3.56425 11.6667 5.13083C11.6667 7.04853 10.0881 8.61201 7.69513 10.9822L7.67671 11.0004Z" fill="#E0E0E0"/>
</svg>
