<svg width="200" height="50" viewBox="0 0 200 50" fill="none" xmlns="http://www.w3.org/2000/svg">
<path d="M17.5612 21.9515V43.903C17.5612 47.32 19.5148 49.0215 23.4149 49.0215V49.7497H0V49.0215C3.90015 49.0215 5.85373 47.313 5.85373 43.903V5.85373C5.85373 2.43672 3.90015 0.735217 0 0.735217V0H40.9761V10.9722H40.2479C39.8067 4.14522 36.7538 0.728215 31.0962 0.728215H17.5612V21.2163V21.9515Z" fill="white"/>
<path d="M48.5032 49.7567C44.7501 49.7567 41.8583 48.7974 39.8347 46.8788C37.8321 44.9602 36.8308 42.2364 36.8308 38.7074C36.8308 35.2064 37.8461 32.4826 39.8767 30.536C41.9073 28.6174 44.7852 27.6581 48.5032 27.6581C52.2283 27.6581 55.1062 28.6174 57.1298 30.536C59.1604 32.4826 60.1757 35.2064 60.1757 38.7074H43.4968C43.4968 43.6299 43.7769 46.4797 44.33 47.2569C45.3593 48.6433 46.7457 49.3435 48.4963 49.3435C50.5829 49.3435 52.5364 48.8324 54.371 47.8031C56.2055 46.7738 57.662 45.4294 58.7473 43.7559L59.0834 43.966C57.97 45.7165 56.4716 47.1239 54.581 48.1742C52.6975 49.2245 50.6739 49.7567 48.5032 49.7567ZM43.4968 38.2873H53.5027C53.5027 34.065 53.2927 31.5093 52.8795 30.613C52.1023 28.9185 50.6389 28.0713 48.5032 28.0713C46.3886 28.0713 45.0302 28.7785 44.421 30.1999C43.8049 31.6773 43.4968 34.3731 43.4968 38.2873Z" fill="white"/>
<path d="M88.527 49.5466H80.1876C79.9075 49.5466 79.6064 49.3225 79.2703 48.8814C78.9342 48.4333 78.7381 48.2162 78.6891 48.2162C77.2747 49.2455 75.5452 49.7567 73.5216 49.7567C69.9926 49.7567 67.1637 48.9654 65.0351 47.383C62.9065 45.8005 61.8422 44.022 61.8422 42.0474C61.8422 40.0728 62.8995 38.3293 65.0141 36.8169C67.1287 35.3044 69.9646 34.5482 73.5216 34.5482C75.2441 34.5482 76.9106 34.8983 78.5211 35.5915V34.5482C78.5211 30.2419 76.7146 28.0853 73.1015 28.0853C70.7978 28.0853 68.5852 28.6805 66.4705 29.8778L66.2185 29.4997C68.4451 28.2743 70.7348 27.6652 73.0945 27.6652C81.1539 27.6652 85.1871 31.3482 85.1871 38.7144V46.2136C85.1871 48.1602 86.3004 49.1335 88.52 49.1335V49.5466H88.527ZM78.5211 36.0396C76.9386 35.3184 75.2721 34.9543 73.5216 34.9543C71.463 34.9543 70.0206 35.7315 69.1873 37.286C68.7462 38.0352 68.5221 39.6177 68.5221 42.0404C68.5221 44.9883 68.8862 46.9068 69.6075 47.7961C70.4687 48.8254 71.7781 49.3366 73.5286 49.3366C75.6432 49.3366 77.3377 48.8044 78.6121 47.7541C78.5561 46.0316 78.5281 44.3791 78.5281 42.7896V36.0396H78.5211Z" fill="white"/>
<path d="M93.0714 21.1953C93.0714 19.2487 91.9581 18.2754 89.7385 18.2754V17.8553H98.0779C99.1912 17.8553 99.7444 18.9686 99.7444 21.1883V43.2448L109.372 30.9491C109.848 30.368 110.086 29.8638 110.086 29.4507C110.086 28.6735 109.141 28.2814 107.244 28.2814V27.8612H114.337V28.2814C113.419 28.2814 112.684 28.4354 112.124 28.7435C111.571 29.0516 110.794 29.8428 109.792 31.1242L107.027 34.6462L112.908 46.2977C113.545 47.6281 114.064 48.4333 114.449 48.7134C114.841 48.9935 115.492 49.1265 116.409 49.1265V49.5466H108.49C107.433 49.5466 106.452 48.5173 105.535 46.4587L102.489 40.458L99.7374 43.924V46.2136C99.7374 48.1532 100.851 49.1265 103.07 49.1265V49.5466H89.7314V49.1265C91.9511 49.1265 93.0644 48.1532 93.0644 46.2066V21.1953H93.0714Z" fill="white"/>
<path d="M125.582 45.0653C125.582 47.9151 126.415 49.3365 128.082 49.3365C129.804 49.3365 131.002 48.6153 131.667 47.1659L132.045 47.3339C131.324 48.9444 130 49.7497 128.082 49.7497C121.969 49.7497 118.909 46.2766 118.909 39.3306V31.2012C118.909 29.2546 117.796 28.2813 115.576 28.2813V27.8612H117.411C120.078 27.8612 121.409 25.9146 121.409 22.0215H125.575V27.8612H131.408V28.2813C129.461 28.2813 127.515 28.2813 125.575 28.2813C125.582 36.9009 125.582 42.4955 125.582 45.0653Z" fill="white"/>
<path d="M133.298 27.8682H141.638C142.751 27.8682 143.304 28.9815 143.304 31.2012V46.2136C143.304 48.1602 144.418 49.1335 146.637 49.1335V49.5536H133.298V49.1335C135.518 49.1335 136.631 48.1602 136.631 46.2136V31.2012C136.631 29.2546 135.518 28.2813 133.298 28.2813V27.8682ZM137.612 23.5549C136.96 22.9037 136.631 22.1195 136.631 21.2022C136.631 20.285 136.96 19.5007 137.612 18.8496C138.263 18.1984 139.047 17.8693 139.964 17.8693C140.882 17.8693 141.666 18.1984 142.317 18.8496C142.968 19.5007 143.297 20.285 143.297 21.2022C143.297 22.1195 142.968 22.9037 142.317 23.5549C141.666 24.2061 140.882 24.5352 139.964 24.5352C139.054 24.5352 138.263 24.2061 137.612 23.5549Z" fill="white"/>
<path d="M159.143 49.7567C155.39 49.7567 152.498 48.7974 150.474 46.8788C148.472 44.9602 147.471 42.2364 147.471 38.7074C147.471 35.2064 148.486 32.4826 150.516 30.536C152.547 28.6174 155.425 27.6581 159.143 27.6581C162.868 27.6581 165.746 28.6174 167.77 30.536C169.8 32.4826 170.815 35.2064 170.815 38.7074C170.815 42.2364 169.814 44.9602 167.812 46.8788C165.788 48.7974 162.896 49.7567 159.143 49.7567ZM159.143 49.3365C161.258 49.3365 162.616 48.6013 163.225 47.1239C163.834 45.6254 164.142 42.8176 164.142 38.7004C164.142 34.5832 163.834 31.7824 163.225 30.2769C162.616 28.8065 161.251 28.0643 159.143 28.0643C156.755 28.0643 155.292 28.9815 154.767 30.8161C154.347 32.2865 154.143 34.9123 154.143 38.6934C154.143 42.4745 154.354 45.1003 154.767 46.5707C155.299 48.4193 156.755 49.3365 159.143 49.3365Z" fill="white"/>
<path d="M181.655 31.2012V46.2137C181.655 48.1602 182.768 49.1335 184.988 49.1335V49.5536H171.649V49.1335C173.868 49.1335 174.982 48.1602 174.982 46.2137V31.2012C174.982 29.2547 173.868 28.2814 171.649 28.2814V27.8612H179.988C180.24 27.8612 180.534 28.0783 180.884 28.5054C181.234 28.9396 181.431 29.1496 181.487 29.1496C182.985 28.1483 184.434 27.6512 185.821 27.6512C193.047 27.6512 196.66 30.2209 196.66 35.3675V46.2137C196.66 48.1602 197.773 49.1335 199.993 49.1335V49.5536H186.654V49.1335C188.881 49.1335 189.987 48.1602 189.987 46.2137V35.7876C189.987 30.6481 188.601 28.0713 185.821 28.0713C184.378 28.0713 182.957 28.5825 181.571 29.6118C181.627 30.1229 181.655 30.6481 181.655 31.2012Z" fill="white"/>
<path d="M37.111 21.3563C32.6637 21.3563 29.0586 24.9614 29.0586 29.4086C29.0586 24.9614 25.4535 21.3563 21.0062 21.3563C25.4535 21.3563 29.0586 17.7512 29.0586 13.3039C29.0586 17.7512 32.6637 21.3563 37.111 21.3563Z" fill="#7777E8"/>
</svg>
