<svg width="90" height="30" viewBox="0 0 90 30" fill="none" xmlns="http://www.w3.org/2000/svg">
<path d="M8.68378 6.06299V6.44799H8.74628C10.1038 6.44799 10.7613 7.02049 10.7613 8.19799V21.698C10.7613 22.8805 10.1038 23.448 8.74628 23.448H8.68378V23.833H17.1188V23.468H17.0563C15.6988 23.468 15.0413 22.8955 15.0413 21.718V6.46799H19.7913C21.7913 6.46799 22.8213 7.63799 22.9763 10.0455V10.103H23.3688V6.06299H8.68378Z" fill="white"/>
<path d="M30.1188 19.9679C30.1188 18.7179 29.7513 17.7329 29.0238 17.0354C28.2988 16.3504 27.2588 16.0029 25.9338 16.0029C24.6088 16.0029 23.5663 16.3504 22.8413 17.0354C22.1163 17.7204 21.7363 18.7179 21.7363 19.9679C21.7363 21.2179 22.1013 22.2179 22.8163 22.8979C23.5313 23.5779 24.5863 23.9329 25.9238 23.9329C26.6872 23.9348 27.4381 23.7393 28.1038 23.3654C28.7576 23.0073 29.3119 22.4917 29.7163 21.8654L29.7513 21.8129L29.5263 21.6729L29.4938 21.7254C29.1084 22.3124 28.5847 22.7957 27.9688 23.1329C27.3455 23.4871 26.6406 23.6723 25.9238 23.6704C25.6466 23.6778 25.3719 23.617 25.1238 23.4931C24.8757 23.3693 24.6619 23.1864 24.5013 22.9604C24.3163 22.7104 24.2213 21.7104 24.2188 20.0404H30.1188V19.9679ZM24.5463 16.9879C24.7538 16.5079 25.2088 16.2754 25.9338 16.2754C26.6588 16.2754 27.1563 16.5579 27.4338 17.1379C27.5738 17.4379 27.6463 18.3179 27.6488 19.7579H24.2188C24.2213 18.4129 24.3288 17.4829 24.5363 16.9804L24.5463 16.9879Z" fill="white"/>
<path d="M40.3687 23.5779C39.6187 23.5779 39.2537 23.2629 39.2537 22.6104V19.9679C39.2537 17.3354 37.7962 16.0029 34.9212 16.0029C34.0588 16.0081 33.212 16.2335 32.4612 16.6579L32.4012 16.6904L32.5587 16.9279L32.6112 16.9004C33.3134 16.4938 34.1098 16.2783 34.9212 16.2754C36.1712 16.2754 36.7712 17.0004 36.7712 18.4954V18.7679C36.2308 18.5469 35.6526 18.4331 35.0687 18.4329C33.8037 18.4329 32.7812 18.7054 32.0262 19.2454C31.2712 19.7854 30.8812 20.4304 30.8812 21.1454C30.8812 21.8604 31.2687 22.5104 32.0337 23.0804C32.7987 23.6504 33.8137 23.9329 35.0687 23.9329C35.7173 23.9497 36.355 23.7645 36.8937 23.4029C36.9492 23.4649 37.0009 23.53 37.0487 23.5979C37.1812 23.7729 37.2987 23.8479 37.4237 23.8479H40.4237V23.5754L40.3687 23.5779ZM33.5912 19.4879C33.8762 18.9554 34.3587 18.6979 35.0687 18.6979C35.6553 18.6961 36.2356 18.8188 36.7712 19.0579V21.4029C36.7712 21.9554 36.7712 22.5354 36.8012 23.1254C36.3018 23.4957 35.6898 23.682 35.0687 23.6529C34.8208 23.6722 34.5718 23.6353 34.3402 23.5448C34.1086 23.4543 33.9004 23.3127 33.7312 23.1304C33.4812 22.8304 33.3637 22.1579 33.3637 21.1304C33.3687 20.3004 33.4312 19.7454 33.5837 19.4879H33.5912Z" fill="white"/>
<path d="M50.5137 23.578C50.2861 23.597 50.0579 23.5502 49.8562 23.443C49.6281 23.2038 49.4496 22.9217 49.3312 22.613L47.2712 18.533L48.2237 17.3205C48.4429 17.0007 48.7162 16.7215 49.0312 16.4955C49.2644 16.3822 49.5222 16.329 49.7812 16.3405H49.8437V16.068H47.2137V16.3405H47.2762C47.8987 16.3405 48.2162 16.458 48.2162 16.6905C48.1911 16.8804 48.1031 17.0565 47.9662 17.1905L44.6762 21.3905V13.7755C44.6762 12.9505 44.4587 12.5255 44.0262 12.5255H41.0262V12.7955H41.0887C41.8387 12.7955 42.2037 13.113 42.2037 13.7655V22.6005C42.2037 23.253 41.8387 23.568 41.0887 23.568H41.0262V23.8405H45.8687V23.568H45.8062C45.0562 23.568 44.6887 23.253 44.6887 22.603V21.8155L45.5862 20.683L46.6187 22.718C46.9562 23.468 47.3162 23.843 47.7212 23.843H50.5812V23.5705L50.5137 23.578Z" fill="white"/>
<path d="M56.1763 22.8681L56.1488 22.9231C56.049 23.1562 55.8786 23.3521 55.6614 23.4831C55.4443 23.614 55.1915 23.6735 54.9388 23.6531C54.3863 23.6531 54.1188 23.1806 54.1188 22.2056V16.3406H56.1813V16.0681H54.1188V14.0081H52.5213V14.0706C52.5213 15.4156 52.0788 16.0706 51.1713 16.0706H50.4588V16.3431H50.5213C51.2713 16.3431 51.6363 16.6606 51.6363 17.3131V20.1831C51.6363 22.6681 52.7488 23.9331 54.9388 23.9331C55.2446 23.9559 55.5499 23.882 55.8115 23.7219C56.073 23.5617 56.2776 23.3234 56.3963 23.0406L56.4213 22.9831L56.1763 22.8681Z" fill="white"/>
<path d="M59.4388 14.953C59.6709 14.952 59.8974 14.8823 60.09 14.7527C60.2825 14.6231 60.4323 14.4394 60.5205 14.2248C60.6088 14.0102 60.6315 13.7742 60.5858 13.5467C60.5401 13.3191 60.428 13.1102 60.2638 12.9463C60.0995 12.7824 59.8903 12.6708 59.6627 12.6255C59.4351 12.5803 59.1992 12.6035 58.9847 12.6922C58.7703 12.7809 58.5869 12.9311 58.4577 13.1239C58.3285 13.3167 58.2593 13.5434 58.2588 13.7755C58.2601 14.0878 58.3849 14.387 58.606 14.6076C58.8271 14.8282 59.1265 14.9524 59.4388 14.953Z" fill="white"/>
<path d="M61.7938 23.578C61.0438 23.578 60.6788 23.263 60.6788 22.6105V17.3105C60.6788 16.4855 60.4588 16.0605 60.0263 16.0605H57.0262V16.333H57.0887C57.8387 16.333 58.2037 16.6505 58.2037 17.303V22.603C58.2037 23.2555 57.8387 23.5705 57.0887 23.5705H57.0262V23.843H61.8688V23.5705L61.7938 23.578Z" fill="white"/>
<path d="M69.6188 17.028C68.8913 16.343 67.8513 15.9955 66.5263 15.9955C65.2013 15.9955 64.1613 16.343 63.4338 17.028C62.7063 17.713 62.3288 18.718 62.3288 19.968C62.3288 21.218 62.6913 22.218 63.4088 22.898C64.1263 23.578 65.1788 23.933 66.5138 23.933C67.8488 23.933 68.8938 23.5855 69.6188 22.898C70.3438 22.2105 70.6988 21.2255 70.6988 19.968C70.6988 18.7105 70.3313 17.718 69.6188 17.028ZM65.0388 17.193C65.2188 16.5705 65.7063 16.268 66.5263 16.268C67.2513 16.268 67.7038 16.518 67.9113 17.018C68.1188 17.518 68.2313 18.533 68.2313 19.9705C68.2313 21.408 68.1238 22.4005 67.9113 22.9205C67.6988 23.4405 67.2513 23.6705 66.5263 23.6705C65.7063 23.6705 65.2188 23.368 65.0388 22.743C64.8963 22.2305 64.8213 21.3005 64.8213 19.978C64.8213 18.6555 64.8838 17.718 65.0263 17.193H65.0388Z" fill="white"/>
<path d="M81.2462 23.578C80.4962 23.578 80.1312 23.263 80.1312 22.6105V18.783C80.1312 16.933 78.8212 15.9955 76.2387 15.9955C75.6891 16.0148 75.1572 16.1947 74.7087 16.513C74.6862 16.488 74.6362 16.4355 74.5437 16.3205C74.4062 16.1505 74.2937 16.0705 74.1787 16.0705H71.1787V16.343H71.2412C71.9912 16.343 72.3562 16.6605 72.3562 17.313V22.613C72.3562 23.2655 71.9912 23.5805 71.2412 23.5805H71.1787V23.853H76.0162V23.5805H75.9537C75.2037 23.5805 74.8362 23.2655 74.8362 22.613V17.313C74.837 17.1352 74.8286 16.9574 74.8112 16.7805C75.2242 16.4655 75.7269 16.2903 76.2462 16.2805C77.1837 16.2805 77.6587 17.1755 77.6587 18.9405V22.623C77.6587 23.2755 77.2937 23.5905 76.5412 23.5905H76.4787V23.863H81.3162V23.5905L81.2462 23.578Z" fill="white"/>
<path d="M22.0311 13.7991C20.4467 13.7991 19.1624 15.0834 19.1624 16.6677C19.1624 15.0834 17.8781 13.7991 16.2938 13.7991C17.8781 13.7991 19.1624 12.5148 19.1624 10.9304C19.1624 12.5148 20.4467 13.7991 22.0311 13.7991Z" fill="white"/>
</svg>
