<svg width="40" height="40" viewBox="0 0 40 40" fill="none" xmlns="http://www.w3.org/2000/svg">
<path d="M15 11.6667C15 10.3407 15.5268 9.0689 16.4645 8.13121C17.4021 7.19353 18.6739 6.66675 20 6.66675C21.3261 6.66675 22.5979 7.19353 23.5355 8.13121C24.4732 9.0689 25 10.3407 25 11.6667V20.0001C25 21.3262 24.4732 22.5979 23.5355 23.5356C22.5979 24.4733 21.3261 25.0001 20 25.0001C18.6739 25.0001 17.4021 24.4733 16.4645 23.5356C15.5268 22.5979 15 21.3262 15 20.0001V11.6667Z" fill="#E0E0E0"/>
<path d="M13.3332 19.9999C13.3332 23.6818 16.3179 26.6666 19.9998 26.6666C23.6817 26.6666 26.6665 23.6818 26.6665 19.9999V18.3333H28.3332V19.9999C28.3332 24.6023 24.6022 28.3333 19.9998 28.3333C15.3975 28.3333 11.6665 24.6023 11.6665 19.9999V18.3333H13.3332V19.9999Z" fill="#E0E0E0"/>
<path fill-rule="evenodd" clip-rule="evenodd" d="M19.1668 31.6667V27.5H20.8335V31.6667H26.6668V33.3333H13.3335V31.6667H19.1668Z" fill="#E0E0E0"/>
</svg>
