<svg width="24" height="24" viewBox="0 0 24 24" fill="none" xmlns="http://www.w3.org/2000/svg">
<path fill-rule="evenodd" clip-rule="evenodd" d="M12 11C13.6569 11 15 9.65685 15 8C15 6.34315 13.6569 5 12 5C10.3431 5 9 6.34315 9 8C9 9.65685 10.3431 11 12 11ZM12 12C14.2091 12 16 10.2091 16 8C16 5.79086 14.2091 4 12 4C9.79086 4 8 5.79086 8 8C8 10.2091 9.79086 12 12 12Z" fill="#E0E0E0"/>
<path fill-rule="evenodd" clip-rule="evenodd" d="M4.06189 20C4.55399 16.0537 7.92038 13 12 13C16.0796 13 19.446 16.0537 19.9381 20H4.06189ZM12 14C15.171 14 17.8496 16.1085 18.7101 19H5.28987C6.15042 16.1085 8.82898 14 12 14Z" fill="#E0E0E0"/>
</svg>
