<svg width="18" height="18" viewBox="0 0 18 18" fill="none" xmlns="http://www.w3.org/2000/svg">
<g clip-path="url(#clip0)">
<path d="M12.05 13.56V15.82H14.96C16.66 14.25 17.64 11.95 17.64 9.21C17.64 8.57 17.58 7.96 17.48 7.37H9V10.85H13.84C13.64 11.97 13 12.92 12.05 13.56Z" fill="#3E82F1"/>
<path d="M14.96 15.82L12.05 13.56C11.24 14.1 10.21 14.42 9.00002 14.42C6.66002 14.42 4.67002 12.84 3.96002 10.71H0.960022V13.04C2.44002 15.98 5.48002 18 9.00002 18C11.43 18 13.47 17.19 14.96 15.82Z" fill="#32A753"/>
<path d="M3.96 4.95996H0.96C0.35 6.16996 0 7.54996 0 8.99996C0 10.45 0.35 11.83 0.96 13.04L3.97 10.71C3.78 10.17 3.68 9.58996 3.68 8.99996C3.68 8.40996 3.78 7.82996 3.96 7.28996V4.95996Z" fill="#F9BB00"/>
<path d="M9.00002 3.58C10.32 3.58 11.51 4.03 12.44 4.93L15.02 2.35C13.46 0.89 11.43 0 9.00002 0C5.48002 0 2.44002 2.02 0.960022 4.96L3.97002 7.29C4.67002 5.16 6.66002 3.58 9.00002 3.58Z" fill="#E74235"/>
</g>
<defs>
<clipPath id="clip0">
<rect width="17.64" height="18" fill="white"/>
</clipPath>
</defs>
</svg>
