<svg width="24" height="24" viewBox="0 0 24 24" fill="none" xmlns="http://www.w3.org/2000/svg">
<path fill-rule="evenodd" clip-rule="evenodd" d="M12.5252 18.7932C12.1847 19.7998 12 20.8783 12 22C12 20.8783 11.8153 19.7998 11.4748 18.7932C10.4789 15.8499 8.15013 13.5211 5.20681 12.5252C4.20017 12.1847 3.12166 12 2 12C3.12166 12 4.20017 11.8153 5.20681 11.4748C8.15013 10.4789 10.4789 8.15013 11.4748 5.20681C11.8153 4.20017 12 3.12166 12 2C12 3.12166 12.1847 4.20017 12.5252 5.20681C13.5211 8.15013 15.8499 10.4789 18.7932 11.4748C19.7998 11.8153 20.8783 12 22 12C20.8783 12 19.7998 12.1847 18.7932 12.5252C15.8499 13.5211 13.5211 15.8499 12.5252 18.7932ZM12 17.411C13.0972 15.0239 15.0239 13.0972 17.411 12C15.0239 10.9028 13.0972 8.97606 12 6.58903C10.9028 8.97606 8.97606 10.9028 6.58903 12C8.97606 13.0972 10.9028 15.0239 12 17.411Z" fill="#E0E0E0"/>
</svg>
