<svg width="24" height="24" viewBox="0 0 24 24" fill="none" xmlns="http://www.w3.org/2000/svg">
<path d="M8.71614 19V18.2896H9.65121C10.1707 18.2896 10.564 18.1934 10.8312 18.0011C11.0983 17.8087 11.2319 17.3351 11.2319 16.5803V5.86575H8.53803C7.9295 5.86575 7.52134 6.01374 7.31354 6.30973C7.10575 6.59091 6.97959 7.00529 6.93507 7.55285L6.84601 8.64059H6L6.13358 5H17.8664L18 8.64059H17.154L17.0649 7.55285C17.0204 7.00529 16.8942 6.59091 16.6865 6.30973C16.4935 6.01374 16.0779 5.86575 15.4397 5.86575H12.7236V16.5359C12.7236 17.3055 12.8497 17.7939 13.102 18.0011C13.3692 18.1934 13.7699 18.2896 14.3043 18.2896H15.2171V19H8.71614Z" fill="#E0E0E0"/>
</svg>
