<svg width="24" height="24" viewBox="0 0 24 24" fill="none" xmlns="http://www.w3.org/2000/svg">
<path d="M6.71614 19V18.2896H7.65121C8.17069 18.2896 8.56401 18.1934 8.83117 18.0011C9.09833 17.8087 9.23191 17.3351 9.23191 16.5803V5.86575H6.53803C5.9295 5.86575 5.52134 6.01374 5.31354 6.30973C5.10575 6.59091 4.97959 7.00529 4.93507 7.55285L4.84601 8.64059H4L4.13358 5H15.8664L16 8.64059H15.154L15.0649 7.55285C15.0204 7.00529 14.8942 6.59091 14.6865 6.30973C14.4935 6.01374 14.0779 5.86575 13.4397 5.86575H10.7236V16.5359C10.7236 17.3055 10.8497 17.7939 11.102 18.0011C11.3692 18.1934 11.7699 18.2896 12.3043 18.2896H13.2171V19H6.71614Z" fill="#E0E0E0"/>
<path d="M15.3581 19V18.6448H15.8256C16.0853 18.6448 16.282 18.5967 16.4156 18.5005C16.5492 18.4043 16.616 18.1675 16.616 17.7902V12.4329H15.269C14.9647 12.4329 14.7607 12.5069 14.6568 12.6549C14.5529 12.7955 14.4898 13.0026 14.4675 13.2764L14.423 13.8203H14L14.0668 12H19.9332L20 13.8203H19.577L19.5325 13.2764C19.5102 13.0026 19.4471 12.7955 19.3432 12.6549C19.2468 12.5069 19.039 12.4329 18.7199 12.4329H17.3618V17.768C17.3618 18.1527 17.4249 18.3969 17.551 18.5005C17.6846 18.5967 17.885 18.6448 18.1521 18.6448H18.6085V19H15.3581Z" fill="#E0E0E0"/>
</svg>
