<svg width="14" height="14" viewBox="0 0 14 14" fill="none" xmlns="http://www.w3.org/2000/svg">
<path fill-rule="evenodd" clip-rule="evenodd" d="M6.99996 6.41665C7.96646 6.41665 8.74996 5.63314 8.74996 4.66665C8.74996 3.70015 7.96646 2.91665 6.99996 2.91665C6.03346 2.91665 5.24996 3.70015 5.24996 4.66665C5.24996 5.63314 6.03346 6.41665 6.99996 6.41665ZM6.99996 6.99998C8.28862 6.99998 9.33329 5.95531 9.33329 4.66665C9.33329 3.37798 8.28862 2.33331 6.99996 2.33331C5.71129 2.33331 4.66663 3.37798 4.66663 4.66665C4.66663 5.95531 5.71129 6.99998 6.99996 6.99998Z" fill="#E0E0E0"/>
<path fill-rule="evenodd" clip-rule="evenodd" d="M2.36938 11.6666C2.65644 9.36463 4.62017 7.58331 6.99995 7.58331C9.37972 7.58331 11.3435 9.36463 11.6305 11.6666H2.36938ZM6.99995 8.16665C8.84971 8.16665 10.4122 9.39661 10.9142 11.0833H3.08571C3.5877 9.39661 5.15018 8.16665 6.99995 8.16665Z" fill="#E0E0E0"/>
</svg>
